<?xml version="1.0" standalone="no"?><!DOCTYPE svg PUBLIC "-//W3C//DTD SVG 1.1//EN" "http://www.w3.org/Graphics/SVG/1.1/DTD/svg11.dtd"><svg t="1579420975357" class="icon" viewBox="0 0 1024 1024" version="1.1" xmlns="http://www.w3.org/2000/svg" p-id="1441" xmlns:xlink="http://www.w3.org/1999/xlink" width="200" height="200"><defs><style type="text/css"></style></defs><path d="M385.4 718.9c-7.7 0-15.4-2.9-21.2-8.8-11.7-11.7-11.7-30.7 0-42.4L493 538.8c11.7-11.7 30.7-11.7 42.4 0s11.7 30.7 0 42.4L406.6 710.1c-5.9 5.9-13.6 8.8-21.2 8.8zM732 633.2c-7.7 0-15.4-2.9-21.2-8.8-11.7-11.7-11.7-30.7 0-42.4L811 481.8c11.7-11.7 30.7-11.7 42.4 0s11.7 30.7 0 42.4L753.2 624.4c-5.9 5.8-13.5 8.8-21.2 8.8z" fill="#FFD34C" p-id="1442"></path><path d="M218.5 507.2c-45.4 0-84-14.9-111.6-43.2-25.8-26.4-40-63.2-40-103.5s14.2-77.1 40-103.5c27.6-28.3 66.2-43.2 111.6-43.2 44.4 0 90.8 14.4 127.1 39.5 19.1 13.2 34.3 28.5 45.4 45.5 12.7 19.5 19.1 40.3 19.1 61.7s-6.4 42.2-19.1 61.7c-11 17-26.3 32.3-45.4 45.5-36.4 25.1-82.7 39.5-127.1 39.5z m0-233.5c-28.8 0-52.6 8.7-68.6 25.1-14.8 15.1-22.9 37-22.9 61.6s8.1 46.4 22.9 61.6c16.1 16.4 39.8 25.1 68.6 25.1 32.1 0 66.9-10.8 93.1-28.9 24.5-16.9 38.5-38 38.5-57.8s-14-41-38.5-57.8c-26.3-18.1-61.1-28.9-93.1-28.9z" fill="#FE4E50" p-id="1443"></path><path d="M462.1 282.6c-2.8 0-5.7-0.4-8.5-1.2-15.9-4.7-24.9-21.4-20.2-37.3C437 231.8 439 219 439 207c0-22.5-6.7-40.8-19.3-53.1-11.7-11.5-28.1-17.5-47.4-17.5-29.2 0-51.5 14.1-61.1 38.6-6 15.4-23.4 23-38.9 17-15.4-6-23-23.4-17-38.9 9.4-24.1 25.6-43.9 46.9-57.3 20.1-12.7 44.4-19.4 70.1-19.4 34.7 0 66.4 12.3 89.3 34.6 24.4 23.9 37.3 57.1 37.3 96.1 0 18-2.7 36.2-8.1 54.2-3.8 12.9-15.7 21.3-28.7 21.3z" fill="#FF9A4C" p-id="1444"></path><path d="M641 890c-7.7 0-15.4-2.9-21.2-8.8-11.7-11.7-11.7-30.7 0-42.4l68.8-68.8c11.7-11.7 30.7-11.7 42.4 0s11.7 30.7 0 42.4l-68.8 68.8c-5.8 5.9-13.5 8.8-21.2 8.8z" fill="#FFD34C" p-id="1445"></path><path d="M748.3 929.4c-30.4 0-63.1-4.6-97.6-13.8-44.4-11.8-90.7-31.3-134.1-56.4-44-25.4-85-56.6-118.7-90.4-67.3-67.3-103.7-142.5-105.3-217.5-0.8-35.5 6.2-70.3 20.7-103.4 13.9-31.8 34.4-61.4 60.9-87.9 26.6-26.6 56.1-47.1 87.9-60.9 33.1-14.5 67.9-21.4 103.4-20.7 75 1.6 150.2 38 217.5 105.3 33.7 33.7 65 74.8 90.4 118.7 25 43.3 44.5 89.7 56.4 134.1 12.7 47.6 16.7 91.8 11.8 131.4-5.6 45.1-22.4 81.9-50 109.5s-64.4 44.4-109.5 50c-10.9 1.3-22.2 2-33.8 2z m-188-591.1c-52.1 0-101.7 22.1-143.7 64.1-43 43-65.2 94.1-64 147.7 1.3 59.2 31.6 120.2 87.7 176.3 60.6 60.6 145 109.6 225.8 131.2 39.6 10.6 77.1 14.1 108.5 10.2 31.5-3.9 56.5-14.9 74.5-32.8 17.9-17.9 29-43 32.8-74.5 3.9-31.4 0.3-68.9-10.2-108.5-21.6-80.9-70.6-165.3-131.2-225.8-56.1-56.1-117.1-86.5-176.3-87.7-1.2-0.1-2.6-0.2-3.9-0.2z" fill="#FE4E50" p-id="1446"></path></svg>